{
  "accessors": [
    {
      "bufferView": 0,
      "componentType": 5125,
      "count": 212304,
      "type": "SCALAR"
    },
    {
      "bufferView": 1,
      "componentType": 5126,
      "count": 197872,
      "max": [
        1.00000011920929,
        0.236257538199425,
        0.503049671649933
      ],
      "min": [
        -1.0,
        -0.236257418990135,
        -0.503049671649933
      ],
      "type": "VEC3"
    },
    {
      "bufferView": 2,
      "componentType": 5126,
      "count": 197872,
      "type": "VEC3"
    },
    {
      "bufferView": 3,
      "componentType": 5126,
      "count": 197872,
      "type": "VEC2"
    }
  ],
  "asset": {
    "generator": "Substance Painter 2019.1.1",
    "version": "2.0"
  },
  "bufferViews": [
    {
      "buffer": 0,
      "byteLength": 849216,
      "target": 34963
    },
    {
      "buffer": 0,
      "byteLength": 2374464,
      "byteOffset": 849216,
      "target": 34962
    },
    {
      "buffer": 0,
      "byteLength": 2374464,
      "byteOffset": 3223680,
      "target": 34962
    },
    {
      "buffer": 0,
      "byteLength": 1582976,
      "byteOffset": 5598144,
      "target": 34962
    }
  ],
  "buffers": [
    {
      "byteLength": 7181120,
      "uri": "towerDemolisherSPP.bin"
    }
  ],
  "images": [
    {
      "uri": "DefaultMaterial_baseColor.png"
    },
    {
      "uri": "DefaultMaterial_occlusionRoughnessMetallic.png"
    },
    {
      "uri": "DefaultMaterial_normal.png"
    }
  ],
  "materials": [
    {
      "alphaMode": "OPAQUE",
      "name": "DefaultMaterial",
      "normalTexture": {
        "index": 2
      },
      "occlusionTexture": {
        "index": 1
      },
      "pbrMetallicRoughness": {
        "baseColorTexture": {
          "index": 0
        },
        "metallicRoughnessTexture": {
          "index": 1
        }
      }
    }
  ],
  "meshes": [
    {
      "name": "DemolisherLemanRuss",
      "primitives": [
        {
          "attributes": {
            "NORMAL": 2,
            "POSITION": 1,
            "TEXCOORD_0": 3
          },
          "indices": 0,
          "material": 0,
          "mode": 4
        }
      ]
    }
  ],
  "nodes": [
    {
      "children": [
        1
      ],
      "name": "root",
      "scale": [
        4005.53125,
        4005.53125,
        4005.53125
      ],
      "translation": [
        351.170166015625,
        6203.607421875,
        10.6591796875
      ]
    },
    {
      "children": [
        2
      ],
      "name": "DemolisherLemanRuss"
    },
    {
      "mesh": 0,
      "name": "DemolisherLemanRuss"
    }
  ],
  "samplers": [
    {
      "magFilter": 9729,
      "minFilter": 9985,
      "wrapS": 10497,
      "wrapT": 10497
    }
  ],
  "scene": 0,
  "scenes": [
    {
      "name": "Scene",
      "nodes": [
        0
      ]
    }
  ],
  "textures": [
    {
      "sampler": 0,
      "source": 0
    },
    {
      "sampler": 0,
      "source": 1
    },
    {
      "sampler": 0,
      "source": 2
    }
  ]
}