{
  "accessors": [
    {
      "bufferView": 0,
      "componentType": 5125,
      "count": 14244,
      "type": "SCALAR"
    },
    {
      "bufferView": 1,
      "componentType": 5126,
      "count": 9553,
      "max": [
        126.754364013672,
        46.0211410522461,
        4.0
      ],
      "min": [
        76.7543640136719,
        -3.97885894775391,
        1.49999988079071
      ],
      "type": "VEC3"
    },
    {
      "bufferView": 2,
      "componentType": 5126,
      "count": 9553,
      "type": "VEC3"
    },
    {
      "bufferView": 3,
      "componentType": 5126,
      "count": 9553,
      "type": "VEC2"
    }
  ],
  "asset": {
    "generator": "Substance Painter 7.1.1",
    "version": "2.0"
  },
  "bufferViews": [
    {
      "buffer": 0,
      "byteLength": 56976,
      "target": 34963
    },
    {
      "buffer": 0,
      "byteLength": 114636,
      "byteOffset": 56976,
      "target": 34962
    },
    {
      "buffer": 0,
      "byteLength": 114636,
      "byteOffset": 171612,
      "target": 34962
    },
    {
      "buffer": 0,
      "byteLength": 76424,
      "byteOffset": 286248,
      "target": 34962
    }
  ],
  "buffers": [
    {
      "byteLength": 362672,
      "uri": "Untitled.bin"
    }
  ],
  "images": [
    {
      "uri": "DefaultMaterial_baseColor.png"
    },
    {
      "uri": "DefaultMaterial_occlusionRoughnessMetallic.png"
    },
    {
      "uri": "DefaultMaterial_normal.png"
    }
  ],
  "materials": [
    {
      "alphaMode": "OPAQUE",
      "name": "DefaultMaterial",
      "normalTexture": {
        "index": 2
      },
      "occlusionTexture": {
        "index": 1
      },
      "pbrMetallicRoughness": {
        "baseColorTexture": {
          "index": 0
        },
        "metallicRoughnessTexture": {
          "index": 1
        }
      }
    }
  ],
  "meshes": [
    {
      "name": "floorTile",
      "primitives": [
        {
          "attributes": {
            "NORMAL": 2,
            "POSITION": 1,
            "TEXCOORD_0": 3
          },
          "indices": 0,
          "material": 0,
          "mode": 4
        }
      ]
    }
  ],
  "nodes": [
    {
      "children": [
        1
      ],
      "name": "RootNode"
    },
    {
      "children": [
        2
      ],
      "name": "floorTile",
      "rotation": [
        -0.707106828689575,
        0.0,
        0.0,
        0.707106709480286
      ],
      "scale": [
        100.0,
        100.0,
        100.0
      ],
      "translation": [
        -10100.529296875,
        0.0,
        1675.21740722656
      ]
    },
    {
      "mesh": 0,
      "name": "floorTile"
    }
  ],
  "samplers": [
    {
      "magFilter": 9729,
      "minFilter": 9985,
      "wrapS": 10497,
      "wrapT": 10497
    }
  ],
  "scene": 0,
  "scenes": [
    {
      "name": "Scene",
      "nodes": [
        0
      ]
    }
  ],
  "textures": [
    {
      "sampler": 0,
      "source": 0
    },
    {
      "sampler": 0,
      "source": 1
    },
    {
      "sampler": 0,
      "source": 2
    }
  ]
}