{
  "accessors": [
    {
      "bufferView": 0,
      "componentType": 5125,
      "count": 370896,
      "type": "SCALAR"
    },
    {
      "bufferView": 1,
      "componentType": 5126,
      "count": 355041,
      "max": [
        1.00000011920929,
        0.194050669670105,
        0.432581901550293
      ],
      "min": [
        -1.0,
        -0.194050669670105,
        -0.432581901550293
      ],
      "type": "VEC3"
    },
    {
      "bufferView": 2,
      "componentType": 5126,
      "count": 355041,
      "type": "VEC3"
    },
    {
      "bufferView": 3,
      "componentType": 5126,
      "count": 355041,
      "type": "VEC2"
    }
  ],
  "asset": {
    "generator": "Substance Painter 2019.1.1",
    "version": "2.0"
  },
  "bufferViews": [
    {
      "buffer": 0,
      "byteLength": 1483584,
      "target": 34963
    },
    {
      "buffer": 0,
      "byteLength": 4260492,
      "byteOffset": 1483584,
      "target": 34962
    },
    {
      "buffer": 0,
      "byteLength": 4260492,
      "byteOffset": 5744076,
      "target": 34962
    },
    {
      "buffer": 0,
      "byteLength": 2840328,
      "byteOffset": 10004568,
      "target": 34962
    }
  ],
  "buffers": [
    {
      "byteLength": 12844896,
      "uri": "towerPunisherSPP.bin"
    }
  ],
  "images": [
    {
      "uri": "DefaultMaterial_baseColor.png"
    },
    {
      "uri": "DefaultMaterial_occlusionRoughnessMetallic.png"
    },
    {
      "uri": "DefaultMaterial_normal.png"
    }
  ],
  "materials": [
    {
      "alphaMode": "OPAQUE",
      "name": "DefaultMaterial",
      "normalTexture": {
        "index": 2
      },
      "occlusionTexture": {
        "index": 1
      },
      "pbrMetallicRoughness": {
        "baseColorTexture": {
          "index": 0
        },
        "metallicRoughnessTexture": {
          "index": 1
        }
      }
    }
  ],
  "meshes": [
    {
      "name": "PunnisherLemanRuss",
      "primitives": [
        {
          "attributes": {
            "NORMAL": 2,
            "POSITION": 1,
            "TEXCOORD_0": 3
          },
          "indices": 0,
          "material": 0,
          "mode": 4
        }
      ]
    }
  ],
  "nodes": [
    {
      "children": [
        1
      ],
      "name": "root",
      "scale": [
        4658.03125,
        4658.03125,
        4658.03125
      ],
      "translation": [
        820.4853515625,
        6246.0478515625,
        13.11669921875
      ]
    },
    {
      "children": [
        2
      ],
      "name": "PunnisherLemanRuss"
    },
    {
      "mesh": 0,
      "name": "PunnisherLemanRuss"
    }
  ],
  "samplers": [
    {
      "magFilter": 9729,
      "minFilter": 9985,
      "wrapS": 10497,
      "wrapT": 10497
    }
  ],
  "scene": 0,
  "scenes": [
    {
      "name": "Scene",
      "nodes": [
        0
      ]
    }
  ],
  "textures": [
    {
      "sampler": 0,
      "source": 0
    },
    {
      "sampler": 0,
      "source": 1
    },
    {
      "sampler": 0,
      "source": 2
    }
  ]
}