{
  "accessors": [
    {
      "bufferView": 0,
      "componentType": 5125,
      "count": 226854,
      "type": "SCALAR"
    },
    {
      "bufferView": 1,
      "componentType": 5126,
      "count": 216581,
      "max": [
        1.0,
        0.181713730096817,
        0.393760025501251
      ],
      "min": [
        -1.0,
        -0.181713730096817,
        -0.393760025501251
      ],
      "type": "VEC3"
    },
    {
      "bufferView": 2,
      "componentType": 5126,
      "count": 216581,
      "type": "VEC3"
    },
    {
      "bufferView": 3,
      "componentType": 5126,
      "count": 216581,
      "type": "VEC2"
    }
  ],
  "asset": {
    "generator": "Substance Painter 2019.1.1",
    "version": "2.0"
  },
  "bufferViews": [
    {
      "buffer": 0,
      "byteLength": 907416,
      "target": 34963
    },
    {
      "buffer": 0,
      "byteLength": 2598972,
      "byteOffset": 907416,
      "target": 34962
    },
    {
      "buffer": 0,
      "byteLength": 2598972,
      "byteOffset": 3506388,
      "target": 34962
    },
    {
      "buffer": 0,
      "byteLength": 1732648,
      "byteOffset": 6105360,
      "target": 34962
    }
  ],
  "buffers": [
    {
      "byteLength": 7838008,
      "uri": "towerBattleCannonSPP.bin"
    }
  ],
  "images": [
    {
      "uri": "DefaultMaterial_baseColor.png"
    },
    {
      "uri": "DefaultMaterial_occlusionRoughnessMetallic.png"
    },
    {
      "uri": "DefaultMaterial_normal.png"
    }
  ],
  "materials": [
    {
      "alphaMode": "OPAQUE",
      "name": "DefaultMaterial",
      "normalTexture": {
        "index": 2
      },
      "occlusionTexture": {
        "index": 1
      },
      "pbrMetallicRoughness": {
        "baseColorTexture": {
          "index": 0
        },
        "metallicRoughnessTexture": {
          "index": 1
        }
      }
    }
  ],
  "meshes": [
    {
      "name": "towerBattleCannon",
      "primitives": [
        {
          "attributes": {
            "NORMAL": 2,
            "POSITION": 1,
            "TEXCOORD_0": 3
          },
          "indices": 0,
          "material": 0,
          "mode": 4
        }
      ]
    }
  ],
  "nodes": [
    {
      "children": [
        1
      ],
      "name": "root",
      "scale": [
        5117.28173828125,
        5117.28173828125,
        5117.28173828125
      ],
      "translation": [
        2013.59619140625,
        6220.06396484375,
        10.6591796875
      ]
    },
    {
      "children": [
        2
      ],
      "name": "towerBattleCannon"
    },
    {
      "mesh": 0,
      "name": "towerBattleCannon"
    }
  ],
  "samplers": [
    {
      "magFilter": 9729,
      "minFilter": 9985,
      "wrapS": 10497,
      "wrapT": 10497
    }
  ],
  "scene": 0,
  "scenes": [
    {
      "name": "Scene",
      "nodes": [
        0
      ]
    }
  ],
  "textures": [
    {
      "sampler": 0,
      "source": 0
    },
    {
      "sampler": 0,
      "source": 1
    },
    {
      "sampler": 0,
      "source": 2
    }
  ]
}