{
  "accessors": [
    {
      "bufferView": 0,
      "componentType": 5125,
      "count": 21426,
      "type": "SCALAR"
    },
    {
      "bufferView": 1,
      "componentType": 5126,
      "count": 19530,
      "max": [
        1182.45349121094,
        28.2299633026123,
        16.6152992248535
      ],
      "min": [
        1153.17541503906,
        15.2659282684326,
        2.21529626846313
      ],
      "type": "VEC3"
    },
    {
      "bufferView": 2,
      "componentType": 5126,
      "count": 19530,
      "type": "VEC3"
    },
    {
      "bufferView": 3,
      "componentType": 5126,
      "count": 19530,
      "type": "VEC2"
    }
  ],
  "asset": {
    "generator": "Substance Painter 7.1.1",
    "version": "2.0"
  },
  "bufferViews": [
    {
      "buffer": 0,
      "byteLength": 85704,
      "target": 34963
    },
    {
      "buffer": 0,
      "byteLength": 234360,
      "byteOffset": 85704,
      "target": 34962
    },
    {
      "buffer": 0,
      "byteLength": 234360,
      "byteOffset": 320064,
      "target": 34962
    },
    {
      "buffer": 0,
      "byteLength": 156240,
      "byteOffset": 554424,
      "target": 34962
    }
  ],
  "buffers": [
    {
      "byteLength": 710664,
      "uri": "Untitled.bin"
    }
  ],
  "images": [
    {
      "uri": "DefaultMaterial_baseColor.png"
    },
    {
      "uri": "DefaultMaterial_occlusionRoughnessMetallic.png"
    },
    {
      "uri": "DefaultMaterial_normal.png"
    }
  ],
  "materials": [
    {
      "alphaMode": "OPAQUE",
      "name": "DefaultMaterial",
      "normalTexture": {
        "index": 2
      },
      "occlusionTexture": {
        "index": 1
      },
      "pbrMetallicRoughness": {
        "baseColorTexture": {
          "index": 0
        },
        "metallicRoughnessTexture": {
          "index": 1
        }
      }
    }
  ],
  "meshes": [
    {
      "name": "SpansBolter",
      "primitives": [
        {
          "attributes": {
            "NORMAL": 2,
            "POSITION": 1,
            "TEXCOORD_0": 3
          },
          "indices": 0,
          "material": 0,
          "mode": 4
        }
      ]
    }
  ],
  "nodes": [
    {
      "children": [
        1
      ],
      "name": "RootNode"
    },
    {
      "children": [
        2
      ],
      "name": "SpansBolter",
      "rotation": [
        -0.707106828689575,
        0.0,
        0.0,
        0.707106709480286
      ],
      "scale": [
        100.0,
        100.0,
        100.0
      ],
      "translation": [
        -117856.90625,
        0.0,
        2173.20849609375
      ]
    },
    {
      "mesh": 0,
      "name": "SpansBolter"
    }
  ],
  "samplers": [
    {
      "magFilter": 9729,
      "minFilter": 9985,
      "wrapS": 10497,
      "wrapT": 10497
    }
  ],
  "scene": 0,
  "scenes": [
    {
      "name": "Scene",
      "nodes": [
        0
      ]
    }
  ],
  "textures": [
    {
      "sampler": 0,
      "source": 0
    },
    {
      "sampler": 0,
      "source": 1
    },
    {
      "sampler": 0,
      "source": 2
    }
  ]
}