{
  "accessors": [
    {
      "bufferView": 0,
      "componentType": 5125,
      "count": 759546,
      "type": "SCALAR"
    },
    {
      "bufferView": 1,
      "componentType": 5126,
      "count": 748420,
      "max": [
        1.0,
        0.189015582203865,
        0.41914439201355
      ],
      "min": [
        -1.0,
        -0.189015671610832,
        -0.41914439201355
      ],
      "type": "VEC3"
    },
    {
      "bufferView": 2,
      "componentType": 5126,
      "count": 748420,
      "type": "VEC3"
    },
    {
      "bufferView": 3,
      "componentType": 5126,
      "count": 748420,
      "type": "VEC2"
    }
  ],
  "asset": {
    "generator": "Substance Painter 2019.1.1",
    "version": "2.0"
  },
  "bufferViews": [
    {
      "buffer": 0,
      "byteLength": 3038184,
      "target": 34963
    },
    {
      "buffer": 0,
      "byteLength": 8981040,
      "byteOffset": 3038184,
      "target": 34962
    },
    {
      "buffer": 0,
      "byteLength": 8981040,
      "byteOffset": 12019224,
      "target": 34962
    },
    {
      "buffer": 0,
      "byteLength": 5987360,
      "byteOffset": 21000264,
      "target": 34962
    }
  ],
  "buffers": [
    {
      "byteLength": 26987624,
      "uri": "marsExecutioner.bin"
    }
  ],
  "images": [
    {
      "uri": "DefaultMaterial_baseColor.png"
    },
    {
      "uri": "DefaultMaterial_occlusionRoughnessMetallic.png"
    },
    {
      "uri": "DefaultMaterial_normal.png"
    }
  ],
  "materials": [
    {
      "alphaMode": "OPAQUE",
      "name": "DefaultMaterial",
      "normalTexture": {
        "index": 2
      },
      "occlusionTexture": {
        "index": 1
      },
      "pbrMetallicRoughness": {
        "baseColorTexture": {
          "index": 0
        },
        "metallicRoughnessTexture": {
          "index": 1
        }
      }
    }
  ],
  "meshes": [
    {
      "name": "marsExecutioner",
      "primitives": [
        {
          "attributes": {
            "NORMAL": 2,
            "POSITION": 1,
            "TEXCOORD_0": 3
          },
          "indices": 0,
          "material": 0,
          "mode": 4
        }
      ]
    }
  ],
  "nodes": [
    {
      "children": [
        1
      ],
      "name": "root",
      "scale": [
        5437.3359375,
        5437.3359375,
        5437.3359375
      ],
      "translation": [
        1342.5859375,
        4309.896484375,
        -53.7763671875
      ]
    },
    {
      "children": [
        2
      ],
      "name": "marsExecutioner"
    },
    {
      "mesh": 0,
      "name": "marsExecutioner"
    }
  ],
  "samplers": [
    {
      "magFilter": 9729,
      "minFilter": 9985,
      "wrapS": 10497,
      "wrapT": 10497
    }
  ],
  "scene": 0,
  "scenes": [
    {
      "name": "Scene",
      "nodes": [
        0
      ]
    }
  ],
  "textures": [
    {
      "sampler": 0,
      "source": 0
    },
    {
      "sampler": 0,
      "source": 1
    },
    {
      "sampler": 0,
      "source": 2
    }
  ]
}