{
  "accessors": [
    {
      "bufferView": 0,
      "componentType": 5125,
      "count": 318666,
      "type": "SCALAR"
    },
    {
      "bufferView": 1,
      "componentType": 5126,
      "count": 308297,
      "max": [
        0.99999988079071,
        0.1986273676157,
        0.442784518003464
      ],
      "min": [
        -1.0,
        -0.1986273676157,
        -0.442784518003464
      ],
      "type": "VEC3"
    },
    {
      "bufferView": 2,
      "componentType": 5126,
      "count": 308297,
      "type": "VEC3"
    },
    {
      "bufferView": 3,
      "componentType": 5126,
      "count": 308297,
      "type": "VEC2"
    }
  ],
  "asset": {
    "generator": "Substance Painter 2019.1.1",
    "version": "2.0"
  },
  "bufferViews": [
    {
      "buffer": 0,
      "byteLength": 1274664,
      "target": 34963
    },
    {
      "buffer": 0,
      "byteLength": 3699564,
      "byteOffset": 1274664,
      "target": 34962
    },
    {
      "buffer": 0,
      "byteLength": 3699564,
      "byteOffset": 4974228,
      "target": 34962
    },
    {
      "buffer": 0,
      "byteLength": 2466376,
      "byteOffset": 8673792,
      "target": 34962
    }
  ],
  "buffers": [
    {
      "byteLength": 11140168,
      "uri": "towerExecutionerSPP.bin"
    }
  ],
  "images": [
    {
      "uri": "DefaultMaterial_baseColor.png"
    },
    {
      "uri": "DefaultMaterial_occlusionRoughnessMetallic.png"
    },
    {
      "uri": "DefaultMaterial_normal.png"
    }
  ],
  "materials": [
    {
      "alphaMode": "OPAQUE",
      "name": "DefaultMaterial",
      "normalTexture": {
        "index": 2
      },
      "occlusionTexture": {
        "index": 1
      },
      "pbrMetallicRoughness": {
        "baseColorTexture": {
          "index": 0
        },
        "metallicRoughnessTexture": {
          "index": 1
        }
      }
    }
  ],
  "meshes": [
    {
      "name": "ExecutionerLemanRuss",
      "primitives": [
        {
          "attributes": {
            "NORMAL": 2,
            "POSITION": 1,
            "TEXCOORD_0": 3
          },
          "indices": 0,
          "material": 0,
          "mode": 4
        }
      ]
    }
  ],
  "nodes": [
    {
      "children": [
        1
      ],
      "name": "root",
      "scale": [
        4550.7021484375,
        4550.7021484375,
        4550.7021484375
      ],
      "translation": [
        709.091796875,
        6246.0458984375,
        -72.40234375
      ]
    },
    {
      "children": [
        2
      ],
      "name": "ExecutionerLemanRuss"
    },
    {
      "mesh": 0,
      "name": "ExecutionerLemanRuss"
    }
  ],
  "samplers": [
    {
      "magFilter": 9729,
      "minFilter": 9985,
      "wrapS": 10497,
      "wrapT": 10497
    }
  ],
  "scene": 0,
  "scenes": [
    {
      "name": "Scene",
      "nodes": [
        0
      ]
    }
  ],
  "textures": [
    {
      "sampler": 0,
      "source": 0
    },
    {
      "sampler": 0,
      "source": 1
    },
    {
      "sampler": 0,
      "source": 2
    }
  ]
}