{
  "accessors": [
    {
      "bufferView": 0,
      "componentType": 5125,
      "count": 1404165,
      "type": "SCALAR"
    },
    {
      "bufferView": 1,
      "componentType": 5126,
      "count": 1346301,
      "max": [
        1.0,
        0.463437110185623,
        0.632248759269714
      ],
      "min": [
        -1.0,
        -0.463437110185623,
        -0.63224869966507
      ],
      "type": "VEC3"
    },
    {
      "bufferView": 2,
      "componentType": 5126,
      "count": 1346301,
      "type": "VEC3"
    },
    {
      "bufferView": 3,
      "componentType": 5126,
      "count": 1346301,
      "type": "VEC2"
    }
  ],
  "asset": {
    "generator": "Substance Painter 2019.1.1",
    "version": "2.0"
  },
  "bufferViews": [
    {
      "buffer": 0,
      "byteLength": 5616660,
      "target": 34963
    },
    {
      "buffer": 0,
      "byteLength": 16155612,
      "byteOffset": 5616660,
      "target": 34962
    },
    {
      "buffer": 0,
      "byteLength": 16155612,
      "byteOffset": 21772272,
      "target": 34962
    },
    {
      "buffer": 0,
      "byteLength": 10770408,
      "byteOffset": 37927884,
      "target": 34962
    }
  ],
  "buffers": [
    {
      "byteLength": 48698292,
      "uri": "LRussBodySPP.bin"
    }
  ],
  "images": [
    {
      "uri": "DefaultMaterial_baseColor.png"
    },
    {
      "uri": "DefaultMaterial_occlusionRoughnessMetallic.png"
    },
    {
      "uri": "DefaultMaterial_normal.png"
    }
  ],
  "materials": [
    {
      "alphaMode": "OPAQUE",
      "name": "DefaultMaterial",
      "normalTexture": {
        "index": 2
      },
      "occlusionTexture": {
        "index": 1
      },
      "pbrMetallicRoughness": {
        "baseColorTexture": {
          "index": 0
        },
        "metallicRoughnessTexture": {
          "index": 1
        }
      }
    }
  ],
  "meshes": [
    {
      "name": "bodyLemanRussMedium",
      "primitives": [
        {
          "attributes": {
            "NORMAL": 2,
            "POSITION": 1,
            "TEXCOORD_0": 3
          },
          "indices": 0,
          "material": 0,
          "mode": 4
        }
      ]
    }
  ],
  "nodes": [
    {
      "children": [
        1
      ],
      "name": "root",
      "scale": [
        5846.21875,
        5846.21875,
        5846.21875
      ],
      "translation": [
        -2935.1875,
        977.197265625,
        -1199.23828125
      ]
    },
    {
      "children": [
        2
      ],
      "name": "bodyLemanRussMedium"
    },
    {
      "mesh": 0,
      "name": "bodyLemanRussMedium"
    }
  ],
  "samplers": [
    {
      "magFilter": 9729,
      "minFilter": 9985,
      "wrapS": 10497,
      "wrapT": 10497
    }
  ],
  "scene": 0,
  "scenes": [
    {
      "name": "Scene",
      "nodes": [
        0
      ]
    }
  ],
  "textures": [
    {
      "sampler": 0,
      "source": 0
    },
    {
      "sampler": 0,
      "source": 1
    },
    {
      "sampler": 0,
      "source": 2
    }
  ]
}